<svg width="17" height="12" viewBox="0 0 17 12" fill="none" xmlns="http://www.w3.org/2000/svg">
<path d="M8.9115 0.240234C8.91719 0.240246 8.92333 0.240261 8.9299 0.240277L9.0007 0.240497C9.8225 0.243516 13.9876 0.273707 15.1106 0.575616C15.799 0.760261 16.3411 1.30442 16.5251 1.99515C16.6264 2.37465 16.697 2.87904 16.7462 3.3978L16.7558 3.50171C16.7635 3.5884 16.7707 3.67529 16.7773 3.76187L16.785 3.86557C16.8507 4.77967 16.8584 5.63508 16.8593 5.82223L16.8594 5.84748C16.8594 5.84955 16.8594 5.85292 16.8594 5.85292V5.8671C16.8594 5.8671 16.8594 5.87048 16.8594 5.87254L16.8593 5.89779C16.8583 6.09202 16.8501 7.00591 16.7773 7.95821L16.7691 8.06222L16.7603 8.16634C16.7108 8.73891 16.6365 9.30747 16.5251 9.72487C16.3411 10.4156 15.799 10.9599 15.1106 11.1444C13.9502 11.4565 9.54144 11.4783 8.9299 11.4799L8.88281 11.48C8.87895 11.48 8.87556 11.48 8.87263 11.48L8.85342 11.48C8.85342 11.48 8.84901 11.48 8.84609 11.48L8.78881 11.4799C8.47977 11.4791 7.20092 11.4731 5.86165 11.4271L5.69042 11.4211C5.66185 11.42 5.63327 11.4189 5.60469 11.4178L5.43326 11.4111L5.26223 11.4038C4.15273 11.3551 3.09487 11.2753 2.60824 11.1444C1.91982 10.9599 1.37772 10.4156 1.19373 9.72487C1.08226 9.30747 1.00795 8.73891 0.958413 8.16634L0.949676 8.06222L0.941468 7.95821C0.871255 7.04054 0.861063 6.15853 0.859583 5.9218L0.859406 5.88792C0.859394 5.88486 0.859384 5.88205 0.859375 5.87949V5.84053C0.859384 5.83797 0.859394 5.83516 0.859406 5.83211L0.859583 5.79822C0.860923 5.58384 0.869409 4.8402 0.923156 4.02012L0.930113 3.91724C0.931312 3.90004 0.932532 3.88282 0.933773 3.86557L0.941468 3.76187C0.948092 3.67529 0.95525 3.5884 0.962985 3.50171L0.972548 3.3978C1.02177 2.87904 1.0924 2.37465 1.19373 1.99515C1.37772 1.30442 1.91982 0.760261 2.60824 0.575616C3.09487 0.444789 4.15273 0.364984 5.26223 0.316304L5.43326 0.309057L5.60469 0.302286C5.63327 0.301196 5.66185 0.300125 5.69042 0.299073L5.86165 0.292984C7.11543 0.249944 8.31626 0.241973 8.71802 0.240497L8.78881 0.240277C8.79539 0.240261 8.80153 0.240246 8.80721 0.240234H8.9115ZM7.25941 3.45143V8.26859L11.4161 5.86014L7.25941 3.45143Z" fill="white"/>
</svg>
