<svg width="17" height="16" viewBox="0 0 17 16" fill="none" xmlns="http://www.w3.org/2000/svg">
<path d="M8.8593 0.242188C13.2707 0.242188 16.8594 3.15451 16.8594 6.73427C16.8594 8.16697 16.3041 9.45719 15.1446 10.7286C13.4663 12.6604 9.71321 15.0135 8.8593 15.3732C8.02951 15.723 8.12534 15.1764 8.16331 14.9598C8.1644 14.9536 8.16544 14.9476 8.16641 14.942C8.18666 14.8218 8.28051 14.2572 8.28051 14.2572C8.30751 14.053 8.33542 13.7361 8.25475 13.5338C8.16503 13.3112 7.81046 13.1955 7.5499 13.1394C3.70545 12.6312 0.859375 9.9435 0.859375 6.73427C0.859375 3.15451 4.44848 0.242188 8.8593 0.242188ZM5.88126 7.92846H4.35654V5.16014C4.35654 5.07411 4.28676 5.00433 4.20088 5.00433H3.63958C3.55354 5.00433 3.48376 5.07411 3.48376 5.16014V8.64573C3.48376 8.6876 3.50048 8.72548 3.52732 8.75339L3.52825 8.75451L3.52946 8.75569L3.53176 8.75784C3.55983 8.78483 3.59756 8.80139 3.63942 8.80139H5.88126C5.96729 8.80139 6.03676 8.73146 6.03676 8.64542V8.08428C6.03676 7.99824 5.96729 7.92846 5.88126 7.92846ZM6.67276 5.00442C6.58673 5.00442 6.5168 5.0742 6.5168 5.15992V8.64582C6.5168 8.7317 6.58673 8.80133 6.67276 8.80133H7.23391C7.31995 8.80133 7.38973 8.7317 7.38973 8.64582V5.15992C7.38973 5.0742 7.31995 5.00442 7.23391 5.00442H6.67276ZM10.5351 5.00442C10.4491 5.00442 10.3793 5.0742 10.3793 5.15992V7.23091L8.78192 5.07358C8.77824 5.06806 8.7741 5.06285 8.76981 5.05779L8.76873 5.05687C8.76567 5.05334 8.7626 5.05027 8.75938 5.0472L8.75646 5.0446C8.75386 5.04214 8.7511 5.03984 8.74818 5.0377C8.74728 5.0368 8.7463 5.03606 8.7453 5.03531L8.7442 5.03448L8.739 5.03088L8.73607 5.02895C8.73453 5.02788 8.733 5.02696 8.73131 5.02619C8.72855 5.02451 8.72579 5.02282 8.72303 5.02144L8.72118 5.02054L8.71812 5.01914C8.71521 5.01776 8.71229 5.01638 8.70923 5.01531L8.70417 5.01347C8.7011 5.01239 8.69803 5.01132 8.69481 5.01055L8.69203 5.00974L8.68945 5.00902L8.68055 5.00702L8.67396 5.00626L8.67169 5.00584L8.66774 5.00539L8.66567 5.00518L8.66034 5.00484L8.6577 5.00472L8.65218 5.00442H8.09118C8.00515 5.00442 7.93522 5.0742 7.93522 5.15992V8.64582C7.93522 8.7317 8.00515 8.80133 8.09118 8.80133H8.65218C8.73837 8.80133 8.80815 8.7317 8.80815 8.64582V6.57545L10.4075 8.73554C10.4186 8.75118 10.4322 8.76391 10.4471 8.77403L10.4486 8.77526L10.4583 8.78109C10.4598 8.78201 10.4612 8.78262 10.4628 8.78339C10.4651 8.78477 10.4677 8.78599 10.4701 8.78707L10.4778 8.79029L10.4824 8.79197C10.4861 8.79335 10.4894 8.79443 10.493 8.7955C10.4937 8.7955 10.4945 8.79581 10.4953 8.79596C10.508 8.79933 10.5213 8.80133 10.5351 8.80133H11.0963C11.1825 8.80133 11.2521 8.7317 11.2521 8.64582V5.15992C11.2521 5.0742 11.1825 5.00442 11.0963 5.00442H10.5351ZM14.3507 5.72144V5.16029C14.3507 5.07426 14.2812 5.00433 14.1952 5.00433H11.9532C11.9111 5.00433 11.8733 5.0212 11.8452 5.04834L11.8444 5.04904L11.8434 5.05003L11.8409 5.05279C11.8142 5.0807 11.7977 5.11843 11.7977 5.16014V8.64573C11.7977 8.6876 11.8144 8.72548 11.8412 8.75339C11.8418 8.75416 11.8426 8.75508 11.8434 8.75569C11.844 8.75646 11.8449 8.75722 11.8457 8.75784C11.8736 8.78468 11.9115 8.80139 11.9532 8.80139H14.1952C14.2812 8.80139 14.3507 8.73146 14.3507 8.64558V8.08428C14.3507 7.99839 14.2812 7.92846 14.1952 7.92846H12.6706V7.33925H14.1952C14.2812 7.33925 14.3507 7.26947 14.3507 7.18343V6.62228C14.3507 6.53625 14.2812 6.46632 14.1952 6.46632H12.6706V5.87726H14.1952C14.2812 5.87726 14.3507 5.80763 14.3507 5.72144Z" fill="white"/>
</svg>
