<svg width="17" height="14" viewBox="0 0 17 14" fill="none" xmlns="http://www.w3.org/2000/svg">
<path d="M5.88539 13.2422C11.923 13.2422 15.2267 8.23923 15.2267 3.90803C15.2267 3.76729 15.2267 3.62654 15.2203 3.48579C15.8606 3.02516 16.4176 2.44297 16.8594 1.78402C16.2703 2.04632 15.6365 2.21906 14.9706 2.30223C15.6493 1.89918 16.1679 1.25301 16.4176 0.485297C15.7837 0.862758 15.0795 1.13146 14.3304 1.2786C13.7285 0.638841 12.877 0.242188 11.9358 0.242188C10.1239 0.242188 8.65129 1.71364 8.65129 3.52418C8.65129 3.78008 8.68331 4.02959 8.73453 4.2727C6.00703 4.13835 3.58687 2.82683 1.96702 0.843566C1.68531 1.32979 1.52524 1.89278 1.52524 2.49416C1.52524 3.63294 2.10787 4.63736 2.98503 5.22595C2.44721 5.20675 1.94141 5.05961 1.49963 4.8165C1.49963 4.82929 1.49963 4.84209 1.49963 4.86128C1.49963 6.4479 2.63288 7.7786 4.13108 8.07929C3.85577 8.15606 3.56766 8.19445 3.26674 8.19445C3.05545 8.19445 2.85057 8.17526 2.65209 8.13687C3.06826 9.44199 4.28475 10.3888 5.71892 10.4144C4.59207 11.2973 3.1771 11.8219 1.64049 11.8219C1.37798 11.8219 1.11548 11.8091 0.859375 11.7771C2.30635 12.6984 4.03505 13.2422 5.88539 13.2422Z" fill="white"/>
</svg>
